<svg fill="none" height="24" viewBox="0 0 24 24" width="24" xmlns="http://www.w3.org/2000/svg"><g stroke="#141b34" stroke-width="1.5"><path d="m13.5822 10.898v-1.898m0 1.898v1.0826m0-1.0826c0 .4574 0 .813.014 1.102m2.1378-.5c.0414-.016.0624-.0242.0812-.0309.714-.2556 1.4885.0531 1.917.7642.0113.0187.0235.0399.0478.0823l.0194.0338c.0472.0824.0709.1236.0852.1525.3171.6412-.054 1.4467-.6891 1.4959-.0286.0022-.0712.0022-.1564.0022h-.787c-.8846 0-1.3269 0-1.6704-.1844-.3713-.1992-.6693-.5455-.8408-.9769-.0881-.2215-.1273-.4783-.1447-.8387m-.014-.0194v.0194c0 .4231 0 .7501-.0123 1.0155m.0123-1.0349.014.0194m-2.5962 3c.8021 0 1.2031 0 1.5195-.1522.4218-.203.7569-.5924.9316-1.0824.0716-.2007.1041-.4307.1188-.7499m0 0-2.1395-2.5155m-2.4304-1.5v4c0 1.1046-.89543 2-2 2" stroke-linecap="round" stroke-linejoin="round"/><path d="m9.77907 3.35212c.56373-.60314.84553-.90471 1.14663-1.07271.6678-.37255 1.4808-.37255 2.1486 0 .3011.168.5829.46957 1.1466 1.07271.254.27173.381.4076.5222.51668.3101.23946.6783.39199 1.0668.44189.1771.02274.3629.01646.7346.0039.8251-.02789 1.2377-.04183 1.5694.0523.7356.20872 1.3105.78365 1.5192 1.51923.0941.33172.0802.74426.0523 1.56934-.0126.37172-.0188.55759.0039.7346.0499.38855.2024.75678.4419 1.06682.1091.14124.2449.26822.5167.52219.6031.56373.9047.84553 1.0727 1.14663.3725.6678.3725 1.4808 0 2.1486-.168.3011-.4696.5829-1.0727 1.1466-.2718.254-.4076.381-.5167.5222-.2395.3101-.392.6783-.4419 1.0668-.0227.1771-.0165.3629-.0039.7346.0279.8251.0418 1.2377-.0523 1.5694-.2087.7356-.7836 1.3105-1.5192 1.5192-.3317.0941-.7443.0802-1.5694.0523-.3717-.0126-.5575-.0188-.7346.0039-.3885.0499-.7567.2024-1.0668.4419-.1412.1091-.2682.2449-.5222.5167-.5637.6031-.8455.9047-1.1466 1.0727-.6678.3725-1.4808.3725-2.1486 0-.3011-.168-.5829-.4696-1.14663-1.0727-.25397-.2718-.38095-.4076-.52219-.5167-.31004-.2395-.67827-.392-1.06682-.4419-.17701-.0227-.36288-.0165-.7346-.0039-.82508.0279-1.23762.0418-1.56934-.0523-.73558-.2087-1.31051-.7836-1.51923-1.5192-.09413-.3317-.08019-.7443-.0523-1.5694.01256-.3717.01884-.5575-.0039-.7346-.0499-.3885-.20243-.7567-.44189-1.0668-.10908-.1412-.24495-.2682-.51668-.5222-.60314-.5637-.90471-.8455-1.07271-1.1466-.37255-.6678-.37255-1.4808 0-2.1486.168-.3011.46957-.5829 1.07271-1.14663.27173-.25397.4076-.38095.51668-.52219.23946-.31004.39199-.67828.44189-1.06682.02274-.17701.01646-.36288.0039-.7346-.02789-.82508-.04183-1.23762.0523-1.56934.20872-.73558.78365-1.31051 1.51923-1.51923.33172-.09413.74426-.08019 1.56934-.0523.37172.01256.55759.01884.7346-.0039.38854-.0499.75678-.20243 1.06682-.44189.14124-.10908.26822-.24495.52219-.51668z"/></g></svg>