<svg xmlns="http://www.w3.org/2000/svg" xmlns:xlink="http://www.w3.org/1999/xlink" width="500" zoomAndPan="magnify" viewBox="0 0 375 374.999991" height="500" preserveAspectRatio="xMidYMid meet" version="1.0"><defs><g/><clipPath id="89552539ae"><path d="M 96.050781 69.136719 L 267.050781 69.136719 L 267.050781 233.386719 L 96.050781 233.386719 Z M 96.050781 69.136719 " clip-rule="nonzero"/></clipPath><clipPath id="3ba731e43f"><path d="M 49.300781 225 L 131 225 L 131 306.75 L 49.300781 306.75 Z M 49.300781 225 " clip-rule="nonzero"/></clipPath><clipPath id="a6423bc260"><path d="M 49.300781 37.5 L 131 37.5 L 131 120 L 49.300781 120 Z M 49.300781 37.5 " clip-rule="nonzero"/></clipPath><clipPath id="87775b61ef"><path d="M 237 37.5 L 318.550781 37.5 L 318.550781 120 L 237 120 Z M 237 37.5 " clip-rule="nonzero"/></clipPath><clipPath id="5b4d287808"><path d="M 237 225 L 318.550781 225 L 318.550781 306.75 L 237 306.75 Z M 237 225 " clip-rule="nonzero"/></clipPath></defs><g clip-path="url(#89552539ae)"><path fill="#000000" d="M 253.640625 126.132812 L 250.289062 126.132812 L 250.289062 79.226562 C 250.289062 77.375 248.785156 75.875 246.933594 75.875 L 210.050781 75.875 C 208.199219 75.875 206.699219 77.375 206.699219 79.226562 L 206.699219 89.921875 C 203.472656 90.613281 200.085938 91.839844 196.640625 93.59375 L 196.640625 84.25 C 196.640625 75.9375 189.871094 69.175781 181.550781 69.175781 C 173.234375 69.175781 166.464844 75.9375 166.464844 84.25 L 166.464844 95.792969 L 163.886719 90.902344 C 163.546875 90.261719 163.007812 89.746094 162.355469 89.4375 L 147.402344 82.359375 L 142.003906 72.128906 C 141.144531 70.492188 139.113281 69.863281 137.476562 70.726562 L 111.253906 84.535156 C 109.617188 85.394531 108.988281 87.421875 109.851562 89.058594 L 115.582031 99.929688 L 113.113281 115.367188 C 112.925781 116.554688 113.449219 117.425781 113.460938 117.460938 L 118.03125 126.132812 L 109.464844 126.132812 C 102.070312 126.132812 96.050781 132.144531 96.050781 139.535156 C 96.050781 146.921875 102.070312 152.933594 109.464844 152.933594 L 109.976562 152.933594 L 120.496094 216.007812 C 122.171875 226.054688 130.785156 233.34375 140.980469 233.34375 C 158.746094 233.34375 204.441406 233.34375 222.125 233.34375 C 232.320312 233.34375 240.933594 226.054688 242.609375 216.007812 L 253.128906 152.933594 L 253.640625 152.933594 C 261.035156 152.933594 267.050781 146.921875 267.050781 139.535156 C 267.050781 132.144531 261.035156 126.132812 253.640625 126.132812 Z M 243.582031 82.578125 L 243.582031 126.132812 L 223.988281 126.132812 C 231.558594 113.574219 232.296875 100.921875 225.40625 94.039062 C 222.347656 90.980469 218.195312 89.40625 213.40625 89.265625 L 213.40625 82.578125 Z M 238.507812 199.839844 L 215.769531 199.839844 L 219.542969 179.738281 L 241.859375 179.738281 Z M 208.945312 199.839844 L 184.90625 199.839844 L 184.90625 179.738281 L 212.71875 179.738281 Z M 184.90625 226.644531 L 184.90625 206.539062 L 207.6875 206.539062 L 203.917969 226.644531 Z M 159.1875 226.644531 L 155.417969 206.539062 L 178.199219 206.539062 L 178.199219 226.644531 Z M 121.246094 179.738281 L 143.5625 179.738281 L 147.335938 199.839844 L 124.597656 199.839844 Z M 150.386719 179.738281 L 178.199219 179.738281 L 178.199219 199.839844 L 154.160156 199.839844 Z M 178.199219 152.933594 L 178.199219 173.035156 L 149.128906 173.035156 L 145.359375 152.933594 C 149.707031 152.933594 175.136719 152.933594 178.199219 152.933594 Z M 184.90625 173.035156 L 184.90625 152.933594 C 187.976562 152.933594 213.464844 152.933594 217.746094 152.933594 L 213.976562 173.035156 Z M 196.640625 107.417969 L 200.976562 111.75 C 202.285156 113.058594 204.40625 113.058594 205.71875 111.75 C 207.027344 110.441406 207.027344 108.320312 205.71875 107.011719 L 198.761719 100.058594 C 207.820312 95.21875 216.488281 94.605469 220.664062 98.777344 C 223.796875 101.90625 223.746094 106.734375 223.152344 110.234375 C 222.300781 115.246094 219.761719 120.839844 215.957031 126.132812 L 196.640625 126.132812 Z M 181.550781 75.875 C 186.175781 75.875 189.933594 79.632812 189.933594 84.25 C 189.933594 87.398438 189.933594 142.976562 189.933594 146.234375 L 173.171875 146.234375 C 173.171875 139.28125 173.171875 92.050781 173.171875 84.25 C 173.171875 79.632812 176.929688 75.875 181.550781 75.875 Z M 166.464844 110.164062 L 166.464844 126.132812 L 159.722656 126.132812 L 146.609375 101.265625 L 148.371094 90.234375 L 158.472656 95.011719 Z M 140.074219 99.652344 L 120.792969 109.808594 L 122.117188 101.535156 L 141.398438 91.382812 Z M 137.636719 78.214844 L 140.761719 84.140625 L 120.472656 94.828125 L 117.347656 88.898438 Z M 120.953125 117.296875 L 141.71875 106.363281 L 152.144531 126.132812 L 125.613281 126.132812 Z M 102.757812 139.53125 C 102.757812 135.839844 105.765625 132.832031 109.464844 132.832031 C 112.355469 132.832031 158.910156 132.832031 166.464844 132.832031 L 166.464844 146.234375 C 160.367188 146.234375 118.542969 146.234375 109.464844 146.234375 C 105.765625 146.234375 102.757812 143.226562 102.757812 139.53125 Z M 138.535156 152.933594 L 142.304688 173.035156 L 120.128906 173.035156 L 116.777344 152.933594 Z M 127.113281 214.90625 L 125.714844 206.539062 L 148.59375 206.539062 L 152.367188 226.644531 L 140.976562 226.644531 C 134.078125 226.644531 128.246094 221.707031 127.113281 214.90625 Z M 235.992188 214.90625 C 234.859375 221.707031 229.027344 226.644531 222.125 226.644531 L 210.738281 226.644531 L 214.511719 206.539062 L 237.390625 206.539062 Z M 242.976562 173.035156 L 220.796875 173.035156 L 224.570312 152.933594 L 246.332031 152.933594 Z M 253.640625 146.234375 C 244.554688 146.234375 202.8125 146.234375 196.640625 146.234375 L 196.640625 132.832031 C 199.226562 132.832031 249.152344 132.832031 253.640625 132.832031 C 257.339844 132.832031 260.347656 135.839844 260.347656 139.53125 C 260.347656 143.226562 257.339844 146.234375 253.640625 146.234375 Z M 253.640625 146.234375 " fill-opacity="1" fill-rule="nonzero"/></g><g clip-path="url(#3ba731e43f)"><path fill="#000000" d="M 57.992188 269.195312 L 57.992188 225.332031 L 49.300781 225.332031 L 49.300781 269.195312 C 49.300781 279.269531 53.222656 288.734375 60.34375 295.859375 C 67.464844 302.980469 76.9375 306.902344 87.007812 306.902344 L 130.871094 306.902344 L 130.871094 298.210938 L 87.007812 298.210938 C 71.007812 298.210938 57.992188 285.195312 57.992188 269.195312 " fill-opacity="1" fill-rule="nonzero"/></g><g clip-path="url(#a6423bc260)"><path fill="#000000" d="M 57.992188 75.207031 C 57.992188 59.207031 71.007812 46.191406 87.007812 46.191406 L 130.871094 46.191406 L 130.871094 37.5 L 87.007812 37.5 C 76.933594 37.5 67.464844 41.421875 60.34375 48.542969 C 53.222656 55.667969 49.300781 65.136719 49.300781 75.207031 L 49.300781 119.070312 L 57.992188 119.070312 L 57.992188 75.207031 " fill-opacity="1" fill-rule="nonzero"/></g><g clip-path="url(#87775b61ef)"><path fill="#000000" d="M 307.660156 48.542969 C 300.535156 41.421875 291.066406 37.5 280.996094 37.5 L 237.132812 37.5 L 237.132812 46.191406 L 280.996094 46.191406 C 296.996094 46.191406 310.011719 59.207031 310.011719 75.207031 L 310.011719 119.070312 L 318.703125 119.070312 L 318.703125 75.207031 C 318.703125 65.136719 314.78125 55.667969 307.660156 48.542969 " fill-opacity="1" fill-rule="nonzero"/></g><g clip-path="url(#5b4d287808)"><path fill="#000000" d="M 310.011719 269.195312 C 310.011719 285.195312 296.996094 298.210938 280.996094 298.210938 L 237.132812 298.210938 L 237.132812 306.902344 L 280.996094 306.902344 C 291.066406 306.902344 300.535156 302.980469 307.660156 295.859375 C 314.78125 288.738281 318.703125 279.269531 318.703125 269.195312 L 318.703125 225.332031 L 310.011719 225.332031 L 310.011719 269.195312 " fill-opacity="1" fill-rule="nonzero"/></g><g fill="#000000" fill-opacity="1"><g transform="translate(67.664894, 277.04654)"><g><path d="M 16.34375 0.375 C 14.375 0.375 12.546875 0.046875 10.859375 -0.609375 C 9.171875 -1.265625 7.695312 -2.210938 6.4375 -3.453125 C 5.175781 -4.691406 4.191406 -6.195312 3.484375 -7.96875 C 2.785156 -9.738281 2.4375 -11.742188 2.4375 -13.984375 C 2.4375 -16.203125 2.785156 -18.195312 3.484375 -19.96875 C 4.191406 -21.738281 5.175781 -23.238281 6.4375 -24.46875 C 7.695312 -25.707031 9.171875 -26.65625 10.859375 -27.3125 C 12.546875 -27.96875 14.375 -28.296875 16.34375 -28.296875 C 18.175781 -28.296875 19.890625 -28 21.484375 -27.40625 C 23.085938 -26.820312 24.503906 -25.976562 25.734375 -24.875 C 26.960938 -23.769531 27.941406 -22.4375 28.671875 -20.875 L 25.40625 -19.53125 C 24.832031 -20.675781 24.085938 -21.648438 23.171875 -22.453125 C 22.265625 -23.253906 21.234375 -23.863281 20.078125 -24.28125 C 18.921875 -24.695312 17.675781 -24.90625 16.34375 -24.90625 C 14.894531 -24.90625 13.539062 -24.660156 12.28125 -24.171875 C 11.03125 -23.691406 9.929688 -22.984375 8.984375 -22.046875 C 8.035156 -21.109375 7.296875 -19.960938 6.765625 -18.609375 C 6.234375 -17.265625 5.96875 -15.722656 5.96875 -13.984375 C 5.96875 -12.234375 6.234375 -10.675781 6.765625 -9.3125 C 7.296875 -7.957031 8.035156 -6.8125 8.984375 -5.875 C 9.929688 -4.9375 11.03125 -4.222656 12.28125 -3.734375 C 13.539062 -3.253906 14.894531 -3.015625 16.34375 -3.015625 C 17.675781 -3.015625 18.921875 -3.21875 20.078125 -3.625 C 21.234375 -4.039062 22.265625 -4.644531 23.171875 -5.4375 C 24.085938 -6.238281 24.832031 -7.21875 25.40625 -8.375 L 28.671875 -7.046875 C 27.941406 -5.484375 26.960938 -4.144531 25.734375 -3.03125 C 24.503906 -1.925781 23.085938 -1.082031 21.484375 -0.5 C 19.890625 0.0820312 18.175781 0.375 16.34375 0.375 Z M 16.34375 0.375 "/></g></g></g><g fill="#000000" fill-opacity="1"><g transform="translate(100.192245, 277.04654)"><g><path d="M 7.9375 -3.234375 L 17.625 -3.234375 L 17.625 0 L 4.375 0 L 4.375 -27.921875 L 7.9375 -27.921875 Z M 7.9375 -3.234375 "/></g></g></g><g fill="#000000" fill-opacity="1"><g transform="translate(121.101039, 277.04654)"><g><path d="M 19.359375 -24.6875 L 8.015625 -24.6875 L 8.015625 -15.546875 L 18 -15.546875 L 18 -12.359375 L 8.015625 -12.359375 L 8.015625 -3.234375 L 19.359375 -3.234375 L 19.359375 0 L 4.375 0 L 4.375 -27.921875 L 19.359375 -27.921875 Z M 19.359375 -24.6875 "/></g></g></g><g fill="#000000" fill-opacity="1"><g transform="translate(145.023522, 277.04654)"><g><path d="M 22.3125 0 L 19.90625 -6.6875 L 7.28125 -6.6875 L 4.890625 0 L 1.1875 0 L 11.484375 -27.921875 L 15.71875 -27.921875 L 26.015625 0 Z M 8.40625 -9.8125 L 18.796875 -9.8125 L 13.609375 -24.34375 Z M 8.40625 -9.8125 "/></g></g></g><g fill="#000000" fill-opacity="1"><g transform="translate(174.378571, 277.04654)"><g><path d="M 23.640625 0 L 19.484375 0 L 13.203125 -10.84375 L 7.9375 -10.84375 L 7.9375 0 L 4.375 0 L 4.375 -27.921875 L 12.96875 -27.921875 C 16.070312 -27.921875 18.425781 -27.363281 20.03125 -26.25 C 22.019531 -24.96875 23.015625 -22.820312 23.015625 -19.8125 C 23.015625 -18.300781 22.78125 -16.957031 22.3125 -15.78125 C 21.84375 -14.613281 21.132812 -13.660156 20.1875 -12.921875 C 19.71875 -12.523438 19.191406 -12.1875 18.609375 -11.90625 C 18.035156 -11.625 17.390625 -11.394531 16.671875 -11.21875 Z M 7.9375 -24.84375 L 7.9375 -13.9375 L 12.515625 -13.9375 C 13.765625 -13.9375 14.84375 -14.046875 15.75 -14.265625 C 16.65625 -14.492188 17.394531 -14.894531 17.96875 -15.46875 C 18.425781 -15.914062 18.773438 -16.476562 19.015625 -17.15625 C 19.265625 -17.84375 19.390625 -18.679688 19.390625 -19.671875 C 19.390625 -20.617188 19.253906 -21.414062 18.984375 -22.0625 C 18.722656 -22.71875 18.363281 -23.234375 17.90625 -23.609375 C 17.3125 -24.097656 16.566406 -24.425781 15.671875 -24.59375 C 14.785156 -24.757812 13.734375 -24.84375 12.515625 -24.84375 Z M 7.9375 -24.84375 "/></g></g></g><g fill="#000000" fill-opacity="1"><g transform="translate(202.365576, 277.04654)"><g/></g></g><g fill="#000000" fill-opacity="1"><g transform="translate(215.066034, 277.04654)"><g><path d="M 17.625 -14.578125 C 18.726562 -14.296875 19.691406 -13.847656 20.515625 -13.234375 C 21.335938 -12.628906 21.976562 -11.851562 22.4375 -10.90625 C 22.90625 -9.96875 23.140625 -8.859375 23.140625 -7.578125 C 23.140625 -6.097656 22.816406 -4.785156 22.171875 -3.640625 C 21.523438 -2.503906 20.613281 -1.613281 19.4375 -0.96875 C 18.257812 -0.320312 16.863281 0 15.25 0 L 4.375 0 L 4.375 -27.921875 L 12.84375 -27.921875 C 14.507812 -27.921875 15.960938 -27.601562 17.203125 -26.96875 C 18.441406 -26.34375 19.398438 -25.472656 20.078125 -24.359375 C 20.753906 -23.253906 21.09375 -21.972656 21.09375 -20.515625 C 21.09375 -19.179688 20.796875 -17.992188 20.203125 -16.953125 C 19.609375 -15.910156 18.75 -15.117188 17.625 -14.578125 Z M 17.765625 -20.3125 C 17.765625 -21.15625 17.566406 -21.914062 17.171875 -22.59375 C 16.785156 -23.269531 16.222656 -23.804688 15.484375 -24.203125 C 14.742188 -24.609375 13.859375 -24.8125 12.828125 -24.8125 L 7.8125 -24.8125 L 7.8125 -15.6875 L 13.484375 -15.6875 C 14.335938 -15.6875 15.085938 -15.894531 15.734375 -16.3125 C 16.378906 -16.726562 16.878906 -17.285156 17.234375 -17.984375 C 17.585938 -18.679688 17.765625 -19.457031 17.765625 -20.3125 Z M 14.65625 -3.15625 C 15.726562 -3.15625 16.632812 -3.375 17.375 -3.8125 C 18.125 -4.25 18.695312 -4.828125 19.09375 -5.546875 C 19.488281 -6.273438 19.6875 -7.070312 19.6875 -7.9375 C 19.6875 -8.84375 19.476562 -9.660156 19.0625 -10.390625 C 18.644531 -11.117188 18.039062 -11.691406 17.25 -12.109375 C 16.46875 -12.535156 15.515625 -12.75 14.390625 -12.75 L 7.8125 -12.75 L 7.8125 -3.15625 Z M 14.65625 -3.15625 "/></g></g></g><g fill="#000000" fill-opacity="1"><g transform="translate(242.577183, 277.04654)"><g><path d="M 4.375 0 L 4.375 -27.921875 L 7.9375 -27.921875 L 7.9375 0 Z M 4.375 0 "/></g></g></g><g fill="#000000" fill-opacity="1"><g transform="translate(257.042239, 277.04654)"><g><path d="M 18.96875 -27.921875 L 18.96875 -24.6875 L 11.8125 -24.6875 L 11.8125 0 L 8.28125 0 L 8.28125 -24.6875 L 1.109375 -24.6875 L 1.109375 -27.921875 Z M 18.96875 -27.921875 "/></g></g></g><g fill="#000000" fill-opacity="1"><g transform="translate(279.279436, 277.04654)"><g><path d="M 19.359375 -24.6875 L 8.015625 -24.6875 L 8.015625 -15.546875 L 18 -15.546875 L 18 -12.359375 L 8.015625 -12.359375 L 8.015625 -3.234375 L 19.359375 -3.234375 L 19.359375 0 L 4.375 0 L 4.375 -27.921875 L 19.359375 -27.921875 Z M 19.359375 -24.6875 "/></g></g></g></svg>